<svg width="12" height="18" viewBox="0 0 12 18" fill="none" xmlns="http://www.w3.org/2000/svg">
<path d="M3.31478 15.0627L3.26109 14.6234H2.81847H0.909321C0.818258 14.6234 0.722725 14.5874 0.644122 14.5137L1.20671 14.5138L10.8038 14.5148L11.3643 14.5149C11.2911 14.5849 11.1952 14.6234 11.0972 14.6234H9.12519H8.68284L8.62892 15.0624C8.45862 16.4491 7.31896 17.5 5.97183 17.5C4.62447 17.5 3.48416 16.4489 3.31478 15.0627ZM0.775189 13.7613L0.502244 14.2279C0.492987 14.1339 0.51237 14.0365 0.560798 13.9524C0.560922 13.9522 0.561046 13.952 0.56117 13.9517L0.836725 13.4788L0.837373 13.4776C1.18235 12.8819 1.36338 12.2049 1.36338 11.513V8.97548C1.36338 7.63927 1.87535 6.40326 2.80417 5.48741L2.80447 5.48712C3.28419 5.01331 3.84335 4.66364 4.44477 4.44093L5.119 4.19126L4.65028 3.64608C4.36367 3.31273 4.18886 2.8761 4.18886 2.39125C4.18886 1.33047 5.01559 0.5 6.00015 0.5C6.98428 0.5 7.81145 1.33326 7.81145 2.39125C7.81145 2.8756 7.63488 3.31559 7.34794 3.64933L6.88192 4.19136L7.5509 4.44323C9.344 5.11834 10.637 6.94402 10.637 9.11222V11.5197C10.637 12.2082 10.8179 12.8885 11.163 13.4844L11.1637 13.4855L11.4385 13.9573C11.4388 13.9577 11.439 13.9581 11.4392 13.9585C11.484 14.037 11.5039 14.1264 11.4994 14.2136L11.2354 13.7624L11.1129 13.5528C11.1127 13.5526 11.1126 13.5523 11.1124 13.5521C10.7572 12.939 10.5687 12.2349 10.5687 11.5185V9.11314C10.5687 6.55298 8.69283 4.40227 6.22972 4.28106C6.1645 4.27724 6.06667 4.28005 6.05825 4.2803L6.05767 4.28031C6.0382 4.28031 6.02163 4.28122 6.00967 4.28208C5.99813 4.28122 5.98208 4.28031 5.96341 4.28031V4.28027L5.95663 4.28036C4.79037 4.29619 3.69591 4.74712 2.85049 5.58164L2.85033 5.5818C1.94209 6.47912 1.4419 7.68919 1.4419 8.97997V11.5175C1.4419 12.2334 1.2526 12.9375 0.898077 13.5512C0.897867 13.5516 0.897656 13.5519 0.897446 13.5523L0.775189 13.7613ZM3.90456 14.6234H3.30259L3.41305 15.2151C3.64149 16.439 4.68979 17.3905 5.97395 17.3905C7.25586 17.3905 8.30602 16.4392 8.53567 15.2156L8.64682 14.6234H8.04425H3.90456ZM6.02213 4.17304V4.17308L6.02857 4.173C6.99083 4.1606 7.74218 3.35146 7.74218 2.39452C7.74218 1.42703 6.97918 0.612761 6.00328 0.612761C5.02657 0.612761 4.26437 1.43111 4.26437 2.39452C4.26437 3.35462 5.01947 4.15759 5.98167 4.17298L5.98167 4.17304H5.98966H6.02213Z" fill="#405359" stroke="#405359"/>
</svg>
